<?xml version="1.0" standalone="no"?>
<!DOCTYPE svg PUBLIC "-//W3C//DTD SVG 20010904//EN"
 "http://www.w3.org/TR/2001/REC-SVG-20010904/DTD/svg10.dtd">
<svg version="1.0" xmlns="http://www.w3.org/2000/svg"
 width="582.000000pt" height="557.000000pt" viewBox="0 0 582.000000 557.000000"
 preserveAspectRatio="xMidYMid meet">
  <defs>
    <linearGradient id="cortexBrainGrad" x1="0%" y1="0%" x2="100%" y2="100%">
      <stop offset="0%" stop-color="#A855F7"/>
      <stop offset="50%" stop-color="#C084FC"/>
      <stop offset="100%" stop-color="#7C3AED"/>
    </linearGradient>
  </defs>

<g transform="translate(0.000000,557.000000) scale(0.100000,-0.100000)"
fill="url(#cortexBrainGrad)" stroke="none">
<path d="M3124 5521 c-56 -25 -106 -72 -129 -119 l-19 -39 -76 -7 c-41 -3
-199 -15 -350 -26 -151 -11 -298 -22 -327 -25 -45 -5 -52 -4 -57 13 -11 33
-77 93 -130 118 -158 73 -348 -30 -381 -207 -6 -34 -7 -35 -98 -58 -51 -13
-145 -37 -210 -54 l-118 -31 -257 -275 c-141 -151 -335 -358 -431 -460 -96
-103 -205 -221 -242 -264 l-69 -77 0 -155 0 -154 -48 -21 c-95 -42 -151 -122
-160 -226 -9 -117 48 -218 153 -270 l55 -26 0 -252 c0 -222 2 -254 17 -276 10
-14 61 -77 113 -140 53 -63 131 -158 173 -211 43 -53 90 -102 105 -108 15 -5
146 -24 292 -41 146 -17 281 -33 301 -36 l37 -5 6 -89 7 -88 107 -99 c59 -54
144 -131 189 -171 l81 -73 -15 -46 c-20 -58 -13 -154 15 -209 24 -47 90 -110
136 -129 132 -55 285 0 350 128 l29 57 288 0 288 0 228 -222 c125 -122 293
-285 373 -362 80 -78 198 -192 262 -254 l116 -113 -15 -37 c-21 -50 -13 -163
15 -217 84 -162 310 -197 440 -67 80 80 100 209 49 313 -32 66 -57 91 -128
128 l-54 28 -3 201 c-2 158 0 202 10 202 7 0 133 0 279 0 146 0 274 2 283 6 9
4 108 106 218 228 129 141 207 220 217 218 9 -2 50 -4 91 -5 66 -2 81 1 129
28 56 31 106 88 128 148 19 53 15 156 -8 207 -11 24 -27 52 -36 62 -21 24 -17
37 82 241 74 152 89 177 109 177 86 0 194 70 239 155 26 48 31 186 9 220 -10
14 -12 15 -8 3 3 -12 -1 -16 -15 -15 -15 1 -19 9 -20 37 -1 19 -1 40 0 46 2
15 -64 66 -106 83 -31 13 -31 13 -36 99 -3 48 -6 186 -7 307 -1 186 -14 386
-19 305 -1 -20 -3 -22 -11 -10 -8 13 -10 12 -10 -2 0 -10 -5 -18 -11 -18 -5 0
-8 4 -5 8 3 5 -1 9 -8 9 -8 0 -12 -6 -9 -14 3 -7 0 -13 -6 -13 -6 0 -11 -7
-11 -16 0 -8 -5 -12 -10 -9 -6 4 -10 -5 -8 -24 1 -17 7 -31 13 -31 6 0 6 -3
-1 -8 -6 -4 -14 -14 -17 -22 -5 -13 -13 218 -9 263 2 21 27 49 36 40 3 -4 6 3
6 14 0 27 10 35 28 20 16 -13 -82 151 -100 168 -7 7 -9 6 -5 -1 4 -7 -11 -28
-32 -47 -22 -20 -37 -38 -33 -41 3 -3 0 -6 -6 -6 -7 0 -12 5 -12 12 0 6 -3 9
-6 5 -9 -9 22 -48 31 -39 5 4 5 2 1 -5 -4 -7 13 -42 38 -80 l44 -68 7 -391 6
-391 -28 -7 c-15 -4 -44 -18 -63 -30 -31 -20 -52 -24 -92 -17 -5 0 -8 7 -8 15
0 15 -47 49 -67 49 -7 0 -10 4 -7 8 6 11 -31 30 -41 21 -5 -4 -6 -2 -3 3 7 11
-187 148 -209 148 -7 0 -11 3 -8 5 3 3 -17 20 -43 38 l-49 32 5 80 c4 70 1 87
-22 137 -17 39 -30 54 -38 49 -7 -4 -10 -4 -6 1 4 4 3 14 -3 21 -10 13 11 53
185 347 26 43 42 76 36 72 -5 -3 -10 0 -11 7 -1 20 -9 61 -14 76 -3 8 -14 10
-31 6 -24 -6 -25 -5 -15 15 7 11 10 21 7 21 -5 0 -72 -112 -205 -340 l-73
-125 -77 0 c-87 0 -136 -21 -197 -82 -46 -46 -66 -92 -73 -172 l-6 -64 -365
-153 c-201 -85 -428 -180 -505 -213 -536 -228 -1066 -451 -1071 -451 -3 0 -16
13 -30 29 -14 17 -50 42 -80 57 -48 24 -63 26 -132 22 -86 -5 -120 -19 -176
-74 -55 -53 -80 -114 -79 -194 0 -81 19 -126 78 -189 l46 -49 -34 -104 -33
-103 -58 -6 c-31 -4 -75 -15 -97 -24 l-39 -18 -78 74 c-42 41 -116 109 -163
152 l-86 77 -5 83 -5 82 216 210 c592 576 539 528 616 552 39 12 159 49 268
84 l197 62 28 -25 c52 -49 91 -63 177 -63 74 0 85 3 136 33 64 39 112 104 130
175 6 26 13 47 14 47 16 0 499 82 512 87 18 6 338 311 640 607 104 102 150
153 145 164 -3 10 -1 13 6 8 7 -4 12 -2 12 3 0 6 7 11 15 11 9 0 12 6 9 18 -4
10 -3 13 3 6 4 -6 18 -14 30 -18 17 -5 24 -1 34 22 9 22 18 28 33 25 12 -2 6
4 -14 15 -29 17 -31 20 -15 25 11 2 1 5 -22 6 l-43 1 -1 288 c-1 159 -5 276
-9 262 -4 -14 -9 -20 -9 -15 -1 6 -8 2 -15 -8 -10 -12 -16 -15 -21 -7 -5 8
-11 8 -21 -1 -7 -6 -12 -15 -9 -19 3 -5 1 -11 -5 -15 -6 -4 -8 -11 -5 -16 4
-5 -1 -16 -9 -25 -15 -14 -16 -8 -16 59 0 45 6 86 14 102 16 30 11 59 -8 48
-6 -4 -6 0 2 9 7 9 9 19 4 22 -5 3 -7 21 -6 40 2 20 -1 36 -7 36 -21 0 -3 33
19 37 15 2 21 -1 17 -8 -4 -6 -14 -8 -24 -4 -10 4 -12 3 -6 -3 6 -5 21 -13 34
-17 19 -6 23 -4 18 7 -5 14 -1 16 43 20 37 4 -9 35 -86 57 -85 25 -94 26 -68
6 10 -8 15 -15 9 -14 -20 3 -38 -1 -32 -7 11 -11 -44 -50 -65 -46 -3 1 -9 -5
-12 -13 -3 -10 1 -15 13 -15 28 0 33 -12 10 -28 -14 -10 -19 -22 -16 -38 2
-13 0 -21 -5 -17 -6 3 -4 -5 3 -18 7 -13 11 -25 10 -27 -2 -2 1 -7 5 -10 4 -4
4 0 0 8 -4 8 -1 6 8 -4 8 -10 12 -24 9 -30 -7 -10 18 4 72 41 11 7 23 13 27
13 5 0 8 -158 8 -350 l0 -350 -142 -138 c-332 -321 -497 -472 -503 -462 -4 7
-4 162 0 345 l8 334 29 10 c16 6 43 20 59 32 24 17 28 24 17 31 -10 7 -8 8 6
6 14 -2 28 11 50 46 28 45 31 57 31 139 1 82 2 90 25 107 24 18 24 19 3 14
-18 -5 -22 -2 -20 15 1 16 8 21 30 21 15 0 26 4 23 8 -2 4 4 8 15 8 22 0 24
-7 7 -25 -13 -13 40 17 140 78 57 36 63 42 30 33 -18 -4 -20 -2 -16 16 4 14 2
22 -7 22 -7 0 -15 5 -17 11 -2 5 -12 12 -23 13 -11 2 -19 8 -18 14 3 11 -143
-71 -162 -90 -7 -8 -6 -8 4 -3 9 5 12 3 9 -6 -3 -8 -13 -16 -23 -17 -12 -3
-15 0 -10 10 5 7 4 10 -1 5 -5 -5 -9 -14 -9 -20 0 -7 -4 -13 -8 -14 -5 -1 -17
-12 -28 -24 -20 -24 -40 -19 -20 5 9 11 8 15 -4 20 -8 3 -15 0 -15 -6 0 -7 -5
-6 -15 2 -8 7 -13 16 -10 20 3 5 1 12 -5 15 -6 4 -9 3 -8 -2 2 -4 -1 -9 -6
-10 -5 -1 -13 -7 -17 -15 -6 -9 -9 -7 -9 9 0 12 6 23 13 26 22 8 -66 27 -124
27 -101 0 -197 -67 -242 -169 -23 -54 -20 -167 7 -218 29 -57 79 -106 135
-130 l54 -24 -8 -397 c-4 -218 -8 -398 -9 -399 -1 -2 -356 -60 -427 -70 -31
-4 -38 -2 -43 15 -7 19 -61 77 -99 105 -20 14 -19 22 63 547 69 438 112 712
131 835 11 72 21 135 23 141 2 6 25 17 51 24 52 15 149 95 141 116 -3 7 0 16
6 20 7 5 8 2 4 -7 -4 -8 0 -5 9 6 15 19 16 19 118 -8 101 -27 102 -27 119 -7
9 11 23 20 31 20 7 0 22 9 31 19 14 15 14 20 4 25 -7 3 9 4 36 1 27 -3 48 -3
45 -1 -4 4 -264 76 -321 90 -21 5 -28 3 -28 -9 0 -16 -9 -19 -26 -7 -10 6 -20
43 -26 90 -1 6 -6 12 -11 12 -5 0 -4 7 3 15 9 10 9 15 1 15 -6 0 -11 7 -11 16
0 14 2 15 17 3 23 -18 -17 39 -44 63 -63 57 -206 76 -289 39z m36 -11 c0 -5
-2 -10 -4 -10 -3 0 -8 5 -11 10 -3 6 -1 10 4 10 6 0 11 -4 11 -10z m-43 -16
c-3 -3 -12 -4 -19 -1 -8 3 -5 6 6 6 11 1 17 -2 13 -5z m-137 -311 c7 -27 14
-51 14 -54 1 -11 -546 -579 -553 -575 -6 4 -73 101 -296 431 -7 11 -3 27 13
57 13 24 28 63 35 88 l13 45 324 26 c179 14 350 27 380 28 l56 1 14 -47z
m-1277 -157 l27 -44 -162 -330 -163 -329 -75 0 c-89 1 -143 -22 -205 -87 l-40
-42 -197 55 c-109 31 -198 59 -198 63 0 8 380 418 533 576 44 45 92 85 106 89
14 3 96 25 181 49 85 23 157 43 160 43 3 0 17 -19 33 -43z m1431 -4 c3 -5 -6
-76 -19 -158 -48 -291 -84 -520 -95 -599 -7 -44 -13 -85 -15 -92 -3 -7 -40 10
-97 45 -241 146 -368 228 -365 234 1 4 123 135 271 292 203 217 274 286 291
286 13 0 26 -4 29 -8z m1236 -62 c0 -5 -7 -10 -15 -10 -8 0 -15 5 -15 10 0 6
7 10 15 10 8 0 15 -4 15 -10z m35 -40 c9 -27 -1 -40 -30 -38 -13 1 -21 6 -19
10 3 5 11 5 17 2 7 -4 2 4 -10 17 l-23 25 30 2 c21 2 30 -3 35 -18z m-2229
-213 c76 -115 147 -222 157 -237 l17 -28 -102 -113 c-57 -63 -119 -131 -139
-151 l-37 -38 -243 0 -244 1 -33 57 -34 57 165 330 165 330 94 1 94 0 140
-209z m1604 8 c0 -8 -2 -15 -4 -15 -2 0 -6 7 -10 15 -3 8 -1 15 4 15 6 0 10
-7 10 -15z m-1306 -381 c14 -13 16 -55 16 -303 l0 -287 103 -168 103 -168 -31
-61 c-24 -49 -30 -74 -30 -124 l0 -64 -35 -9 c-19 -5 -118 -36 -220 -69 -101
-33 -185 -59 -187 -58 -1 2 -5 235 -9 518 l-7 516 132 147 c73 80 137 146 141
146 5 0 16 -7 24 -16z m356 -220 c169 -107 153 -84 136 -189 -8 -49 -22 -139
-31 -200 -9 -60 -21 -135 -26 -165 -11 -56 -11 -56 -57 -67 -26 -6 -48 -10
-48 -9 -1 0 -43 68 -93 151 l-91 150 0 228 0 229 48 -28 c26 -15 99 -60 162
-100z m-2044 28 c98 -28 198 -55 222 -62 34 -9 42 -15 42 -34 0 -52 32 -129
73 -173 50 -54 105 -84 171 -92 l49 -6 33 -120 c19 -66 32 -129 29 -140 -2
-11 -87 -103 -188 -203 l-184 -184 -59 31 c-32 17 -137 74 -233 128 l-173 98
-2 55 c-5 104 -61 191 -151 236 l-55 26 0 129 0 129 111 121 c62 66 117 118
124 115 6 -2 92 -27 191 -54z m1264 -394 c0 -145 3 -347 7 -450 4 -135 3 -188
-5 -188 -6 0 -126 109 -265 241 l-255 242 -32 110 -31 110 42 41 c37 36 61 76
82 139 6 15 26 17 232 17 l225 0 0 -262z m2830 -162 c0 -2 -8 -10 -17 -17 -16
-13 -17 -12 -4 4 13 16 21 21 21 13z m-3174 -343 c104 -98 220 -206 258 -240
37 -34 66 -66 64 -70 -8 -21 -473 -463 -482 -460 -15 5 -406 547 -406 563 0 9
361 384 369 384 4 0 93 -80 197 -177z m3771 45 c-3 -8 -6 -5 -6 6 -1 11 2 17
5 13 3 -3 4 -12 1 -19z m-4752 -144 c116 -64 214 -120 219 -125 6 -5 -51 -133
-144 -321 -84 -172 -156 -317 -160 -321 -4 -4 -33 25 -66 65 -32 40 -94 115
-136 166 l-78 92 0 230 0 230 48 24 c26 13 58 36 71 50 14 14 27 26 31 26 3 0
100 -52 215 -116z m3692 -164 c24 -21 60 -44 79 -50 l34 -12 0 -274 0 -274
-497 0 -497 0 -49 -52 c-27 -29 -205 -223 -395 -430 -335 -366 -347 -377 -389
-384 -30 -4 -507 1 -530 6 0 0 -11 20 -23 44 -12 25 -38 61 -58 80 l-36 36 35
107 35 108 55 6 c129 14 226 113 236 242 l5 62 147 62 c406 173 681 289 1151
488 283 119 542 229 575 245 33 16 64 29 68 29 5 1 29 -17 54 -39z m1105 6 c7
18 8 18 5 -1 -2 -11 -9 -19 -15 -17 -10 2 -17 -25 -13 -50 0 -5 -3 -8 -8 -8
-5 0 -9 20 -8 44 1 38 3 42 16 28 13 -13 16 -12 23 4z m-447 -205 c213 -144
194 -124 183 -183 -15 -82 23 -191 83 -243 l24 -20 -15 21 c-8 11 -3 7 12 -9
l26 -29 -89 -181 -89 -180 -70 2 c-39 1 -87 -3 -107 -10 -37 -12 -37 -12 -77
37 -23 27 -98 115 -168 197 l-128 148 0 294 0 293 44 22 c24 11 50 28 56 35
11 13 25 6 94 -42 44 -31 144 -100 221 -152z m-3927 6 c44 -62 130 -182 192
-267 l112 -155 -79 -73 c-68 -63 -82 -72 -108 -67 -16 2 -133 16 -260 30 -126
14 -236 28 -242 30 -8 3 20 70 81 197 175 361 209 427 217 422 4 -2 44 -55 87
-117z m4122 9 c0 -11 -19 -15 -25 -6 -3 5 1 10 9 10 9 0 16 -2 16 -4z m-693
-573 c19 -17 250 -282 300 -343 l23 -28 -26 -56 -25 -56 -310 0 -310 0 -15 36
c-23 54 -89 119 -146 144 -63 27 -161 25 -223 -5 -50 -25 -105 -79 -130 -130
-29 -58 -28 -185 2 -241 27 -51 101 -118 145 -130 l33 -10 3 -152 3 -153 -126
3 c-123 3 -127 4 -141 28 -38 67 -354 741 -354 755 0 9 30 49 68 88 37 40 107
116 155 170 l89 97 483 0 c446 0 484 -1 502 -17z m-1371 -498 c36 -83 271
-579 315 -667 28 -56 46 -79 63 -84 13 -3 89 -4 170 -2 l146 3 0 -207 0 -208
-44 -21 -44 -20 -43 45 c-24 25 -235 230 -469 456 -234 226 -426 415 -428 420
-3 8 295 340 305 340 2 0 15 -25 29 -55z m1664 -141 c6 -15 19 -38 29 -53 l19
-26 -182 -203 -181 -202 -260 2 -260 3 -3 148 -3 147 45 20 c58 25 118 85 142
143 l19 47 313 0 312 0 10 -26z"/>
<path d="M3477 5367 c-4 -10 -2 -17 3 -17 6 0 11 -10 11 -22 1 -14 3 -17 6 -7
2 8 0 26 -5 39 -7 19 -10 20 -15 7z"/>
<path d="M3486 5287 c3 -10 9 -15 12 -12 3 3 0 11 -7 18 -10 9 -11 8 -5 -6z"/>
<path d="M3953 5163 c29 -8 14 -43 -21 -46 -11 0 -18 -5 -16 -9 3 -4 0 -8 -6
-8 -7 0 -10 -6 -7 -14 3 -7 1 -18 -4 -23 -7 -7 20 -18 78 -32 l88 -22 21 27
c12 14 27 23 33 20 6 -4 9 -1 5 7 -3 8 2 17 10 20 38 15 12 33 -83 60 -54 15
-102 26 -107 26 -5 -1 -1 -3 9 -6z"/>
<path d="M4449 4923 c-13 -16 -12 -17 4 -4 16 13 21 21 13 21 -2 0 -10 -8 -17
-17z"/>
<path d="M4647 4852 c2 -3 -6 -11 -17 -19 -11 -8 -25 -23 -31 -35 -10 -18 -9
-20 5 -15 10 4 15 3 11 -3 -3 -6 -13 -10 -21 -10 -24 0 -15 -23 24 -65 20 -23
36 -39 34 -36 -1 2 10 13 25 23 16 10 22 18 14 18 -11 0 -11 3 -1 15 7 8 16
13 20 10 4 -3 13 2 20 10 10 12 3 23 -37 63 -26 26 -47 46 -46 44z m-2 -72 c3
-5 1 -10 -4 -10 -6 0 -11 5 -11 10 0 6 2 10 4 10 3 0 8 -4 11 -10z"/>
<path d="M4830 4655 c19 -19 36 -35 39 -35 3 0 -10 16 -29 35 -19 19 -36 35
-39 35 -3 0 10 -16 29 -35z"/>
<path d="M4837 4613 c-7 -11 28 -53 44 -53 6 0 8 -7 5 -16 -3 -8 -2 -12 4 -9
6 3 10 13 10 22 0 13 3 13 18 2 9 -7 4 1 -12 19 -16 17 -33 29 -39 25 -5 -3
-13 0 -17 7 -4 7 -10 8 -13 3z"/>
<path d="M4783 4546 c0 -15 13 -37 35 -58 19 -18 32 -27 27 -19 -4 7 -3 16 3
20 10 6 15 25 13 50 -1 10 -4 11 -15 2 -11 -9 -15 -7 -19 9 -8 30 -44 27 -44
-4z"/>
<path d="M5126 4439 c-26 -4 -54 -10 -62 -13 -7 -3 -16 -1 -19 4 -3 5 -12 7
-20 4 -8 -4 -13 -10 -10 -14 3 -5 1 -11 -4 -15 -6 -3 -8 -13 -5 -23 5 -14 4
-14 -4 -2 -9 12 -13 12 -30 -3 -10 -9 -22 -14 -26 -10 -4 4 -4 0 0 -10 3 -9 1
-23 -4 -30 -11 -13 -1 -40 14 -37 18 3 35 24 30 36 -6 17 20 38 39 30 9 -3 15
0 15 10 0 11 6 13 20 9 13 -4 31 0 45 9 33 22 86 26 103 10 18 -19 33 -18 26
1 -5 11 -2 13 10 9 11 -4 16 -1 16 10 0 9 -3 16 -7 16 -5 0 -24 4 -43 8 -19 5
-57 5 -84 1z"/>
<path d="M5270 4416 c0 -2 7 -7 16 -10 8 -3 12 -2 9 4 -6 10 -25 14 -25 6z"/>
<path d="M5047 4353 c-11 -10 -8 -33 4 -33 6 0 8 7 5 16 -5 14 -4 15 9 4 13
-11 14 -10 9 4 -6 17 -16 20 -27 9z"/>
<path d="M5015 4340 c3 -5 8 -10 11 -10 2 0 4 5 4 10 0 6 -5 10 -11 10 -5 0
-7 -4 -4 -10z"/>
<path d="M5395 4301 c3 -6 -2 -14 -11 -19 -20 -11 -9 -36 12 -28 7 3 18 -3 23
-12 6 -9 11 -13 11 -9 0 13 -29 77 -35 77 -3 0 -4 -4 0 -9z"/>
<path d="M4904 4255 c-9 -38 -19 -44 -69 -46 -37 -1 -38 -2 -11 -8 l30 -6 -27
-12 c-15 -7 -27 -17 -27 -23 0 -17 -33 -49 -43 -43 -6 4 -8 0 -4 -10 4 -10 0
-18 -11 -21 -9 -3 22 -3 70 0 81 5 87 4 93 -15 5 -17 10 -19 26 -11 10 6 19 8
19 5 0 -4 7 1 16 9 8 9 21 16 28 16 8 0 12 10 11 25 -2 14 1 25 7 25 5 0 6 9
3 21 -5 15 -4 19 5 14 9 -6 9 -3 0 15 -6 12 -9 28 -6 37 5 12 1 14 -19 11 -14
-3 -25 -1 -25 4 0 5 -4 6 -10 3 -5 -3 -10 -1 -10 5 0 6 -4 9 -9 5 -6 -3 -14 2
-20 12 -8 15 -10 14 -17 -12z"/>
<path d="M5405 4190 c3 -5 8 -10 11 -10 2 0 4 5 4 10 0 6 -5 10 -11 10 -5 0
-7 -4 -4 -10z"/>
<path d="M5348 4183 c7 -3 16 -2 19 1 4 3 -2 6 -13 5 -11 0 -14 -3 -6 -6z"/>
<path d="M4650 4136 c0 -9 5 -16 10 -16 6 0 10 4 10 9 0 6 -4 13 -10 16 -5 3
-10 -1 -10 -9z"/>
<path d="M4600 4115 c-7 -8 -11 -15 -9 -16 52 -10 64 -4 35 20 -10 9 -16 8
-26 -4z"/>
<path d="M4633 4073 c15 -2 37 -2 50 0 12 2 0 4 -28 4 -27 0 -38 -2 -22 -4z"/>
<path d="M5170 4069 c0 -5 -4 -8 -9 -4 -5 3 -12 1 -16 -5 -3 -5 -16 -10 -27
-10 -12 0 -19 -3 -15 -6 3 -4 -1 -13 -9 -22 -11 -10 -13 -23 -8 -41 11 -43 12
-66 1 -73 -18 -11 61 -21 111 -14 26 4 54 8 63 9 15 1 15 4 2 24 -9 13 -11 23
-7 23 5 0 0 7 -10 15 -14 11 -16 15 -5 15 11 0 11 2 1 9 -11 7 -11 9 2 14 8 3
14 15 13 26 0 11 -5 18 -9 15 -4 -3 -4 -12 -1 -21 4 -11 3 -14 -5 -9 -7 4 -12
16 -12 27 0 10 -4 19 -10 19 -5 0 -10 -8 -10 -17 0 -14 -2 -15 -9 -5 -4 8 -12
14 -17 15 -5 1 -8 8 -6 15 2 6 0 12 -3 12 -3 0 -5 -5 -5 -11z"/>
<path d="M4528 4063 c12 -2 30 -2 40 0 9 3 -1 5 -23 4 -22 0 -30 -2 -17 -4z"/>
<path d="M4991 3911 c-8 -5 -9 -11 -3 -15 5 -3 12 1 16 9 6 17 6 18 -13 6z"/>
</g>
</svg>
